<svg width="292" height="153" viewBox="0 0 292 153" fill="none" xmlns="http://www.w3.org/2000/svg">
<g opacity="0.4" clip-path="url(#clip0_25_4106)">
<g opacity="0.5">
<path opacity="0.5" fill-rule="evenodd" clip-rule="evenodd" d="M423.964 569.886C366.715 611.065 297.801 646.294 225.002 624.715C155.326 604.063 116.569 528.782 73.3774 465.969C32.5669 406.618 -8.31872 347.43 -13.2376 278.244C-19.1591 194.955 -23.6384 90.1243 44.0572 53.5682C111.228 17.2956 190.644 109.709 270.223 125.174C353.379 141.334 447.413 80.6741 510.631 144.238C574.802 208.76 557.963 314.086 540.994 397.427C526.011 471.013 481.885 528.225 423.964 569.886Z" stroke="#C530C5" stroke-width="0.5"/>
<path opacity="0.5" fill-rule="evenodd" clip-rule="evenodd" d="M415.011 557.769C357.762 598.948 288.848 634.177 216.049 612.598C146.373 591.945 107.616 516.665 64.4243 453.852C23.6137 394.501 -17.2719 335.313 -22.1907 266.127C-28.1123 182.838 -32.5916 78.0072 35.1041 41.4511C102.275 5.17846 181.691 97.5922 261.27 113.057C344.426 129.217 438.46 68.5569 501.677 132.12C565.848 196.643 549.01 301.969 532.041 385.31C517.058 458.896 472.932 516.108 415.011 557.769Z" stroke="#C530C5" stroke-width="0.5"/>
<path opacity="0.5" fill-rule="evenodd" clip-rule="evenodd" d="M406.066 545.582C348.816 586.761 279.903 621.989 207.104 600.411C137.427 579.758 98.6705 504.477 55.4789 441.664C14.6684 382.314 -26.2172 323.126 -31.136 253.94C-37.0576 170.651 -41.5369 65.8197 26.1588 29.2636C93.3296 -7.00904 172.745 85.4047 252.325 100.869C335.481 117.029 429.515 56.3694 492.732 119.933C556.903 184.455 540.065 289.781 523.095 373.122C508.113 446.709 463.987 503.92 406.066 545.582Z" stroke="#C530C5" stroke-width="0.5"/>
<path opacity="0.5" fill-rule="evenodd" clip-rule="evenodd" d="M397.121 533.456C339.871 574.635 270.958 609.864 198.159 588.286C128.482 567.633 89.7252 492.352 46.5336 429.539C5.72306 370.188 -35.1625 311 -40.0814 241.815C-46.0029 158.525 -50.4822 53.6944 17.2135 17.1383C84.3842 -19.1343 163.8 73.2795 243.379 88.7441C326.535 104.904 420.569 44.2442 483.787 107.808C547.958 172.33 531.119 277.656 514.15 360.997C499.167 434.584 455.041 491.795 397.121 533.456Z" stroke="#C530C5" stroke-width="0.5"/>
<path opacity="0.5" fill-rule="evenodd" clip-rule="evenodd" d="M388.175 521.316C330.926 562.495 262.012 597.724 189.213 576.145C119.537 555.492 80.7799 480.212 37.5883 417.399C-3.22225 358.048 -44.1078 298.86 -49.0267 229.674C-54.9482 146.385 -59.4275 41.5541 8.2682 4.99796C75.4389 -31.2747 154.855 61.1391 234.434 76.6037C317.59 92.7635 411.624 32.1038 474.842 95.6674C539.012 160.189 522.174 265.516 505.205 348.857C490.222 422.443 446.096 479.655 388.175 521.316Z" stroke="#C530C5" stroke-width="0.5"/>
<path opacity="0.5" fill-rule="evenodd" clip-rule="evenodd" d="M379.269 509.168C322.019 550.347 253.106 585.575 180.307 563.997C110.63 543.344 71.8737 468.063 28.6821 405.25C-12.1285 345.899 -53.0141 286.712 -57.9329 217.526C-63.8545 134.237 -68.3337 29.4056 -0.638053 -7.15048C66.5327 -43.4231 145.948 48.9906 225.528 64.4553C308.684 80.615 402.718 19.9554 465.935 83.5189C530.106 148.041 513.268 253.367 496.299 336.708C481.316 410.295 437.19 467.506 379.269 509.168Z" stroke="#C530C5" stroke-width="0.5"/>
<path opacity="0.5" fill-rule="evenodd" clip-rule="evenodd" d="M370.332 497.019C313.082 538.198 244.168 573.427 171.369 551.848C101.693 531.195 62.9362 455.915 19.7446 393.102C-21.066 333.751 -61.9516 274.563 -66.8704 205.377C-72.792 122.088 -77.2712 17.2572 -9.57555 -19.2989C57.5952 -55.5715 137.011 36.8422 216.59 52.3069C299.746 68.4666 393.78 7.80692 456.998 71.3705C521.169 135.893 504.33 241.219 487.361 324.56C472.378 398.146 428.252 455.358 370.332 497.019Z" stroke="#C530C5" stroke-width="0.5"/>
<path opacity="0.5" fill-rule="evenodd" clip-rule="evenodd" d="M361.378 484.847C304.129 526.026 235.215 561.255 162.416 539.676C92.7399 519.024 53.983 443.743 10.7914 380.93C-30.0191 321.579 -70.9047 262.391 -75.8235 193.205C-81.7451 109.916 -86.2244 5.08531 -18.5287 -31.4708C48.6421 -67.7434 128.058 24.6703 207.637 40.135C290.793 56.2947 384.827 -4.36495 448.045 59.1986C512.216 123.721 495.377 229.047 478.408 312.388C463.425 385.974 419.299 443.186 361.378 484.847Z" stroke="#C530C5" stroke-width="0.5"/>
</g>
</g>
<defs>
<clipPath id="clip0_25_4106">
<rect width="545" height="211" fill="white" transform="translate(-30 -58)"/>
</clipPath>
</defs>
</svg>
