<svg width="30" height="30" viewBox="0 0 30 30" fill="none" xmlns="http://www.w3.org/2000/svg">
<path d="M25.1214 17.9117L25.3627 15.5435C25.4915 14.2799 25.5765 13.4456 25.5098 12.9199L25.5331 12.92C26.6234 12.92 27.5073 11.987 27.5073 10.8362C27.5073 9.68528 26.6234 8.7523 25.5331 8.7523C24.4428 8.7523 23.5589 9.68528 23.5589 10.8362C23.5589 11.3567 23.7397 11.8326 24.0386 12.1978C23.6095 12.4774 23.0484 13.0673 22.204 13.9552L22.204 13.9552C21.5534 14.6393 21.2281 14.9813 20.8652 15.0343C20.6641 15.0636 20.4593 15.0334 20.2736 14.9471C19.9385 14.7914 19.7151 14.3685 19.2683 13.5229L16.9131 9.06543C16.6374 8.54374 16.4067 8.1071 16.1987 7.75573C17.052 7.2962 17.6364 6.35974 17.6364 5.27921C17.6364 3.7447 16.4579 2.50073 15.0041 2.50073C13.5504 2.50073 12.3719 3.7447 12.3719 5.27921C12.3719 6.35974 12.9562 7.2962 13.8095 7.75573C13.6015 8.10713 13.3708 8.54369 13.0951 9.06544L10.74 13.5229C10.2931 14.3685 10.0697 14.7914 9.73464 14.9471C9.54898 15.0334 9.34411 15.0636 9.14304 15.0343C8.78015 14.9813 8.45486 14.6393 7.80428 13.9552C6.95981 13.0673 6.39874 12.4774 5.96965 12.1978C6.26855 11.8326 6.44934 11.3567 6.44934 10.8362C6.44934 9.68528 5.56547 8.7523 4.47516 8.7523C3.38485 8.7523 2.50098 9.68528 2.50098 10.8362C2.50098 11.987 3.38485 12.92 4.47516 12.92L4.49847 12.9199C4.43175 13.4456 4.51677 14.2799 4.64552 15.5435L4.88684 17.9117C5.02079 19.2262 5.13218 20.477 5.26861 21.6028H24.7396C24.876 20.477 24.9874 19.2262 25.1214 17.9117Z" fill="#791A79"/>
<path d="M13.5723 27.507H16.436C20.1684 27.507 22.0346 27.507 23.2798 26.3306C23.8233 25.8171 24.1674 24.8913 24.4157 23.6866H5.59249C5.84083 24.8913 6.18497 25.8171 6.72845 26.3306C7.97362 27.507 9.83984 27.507 13.5723 27.507Z" fill="#791A79"/>
</svg>
