<svg width="30" height="30" viewBox="0 0 30 30" fill="none" xmlns="http://www.w3.org/2000/svg">
<path d="M14.0661 2.50073C8.79186 2.50587 6.06297 2.60023 4.33172 4.33148C2.60047 6.06273 2.50612 8.79162 2.50098 14.0658H8.64441C8.20559 13.5177 7.87771 12.8712 7.69892 12.156C7.02593 9.46406 9.4643 7.02569 12.1562 7.69867C12.8714 7.87746 13.518 8.20535 14.0661 8.64417V2.50073Z" fill="#791A79"/>
<path d="M2.50098 15.9413C2.50612 21.2155 2.60047 23.9444 4.33172 25.6757C6.06297 27.4069 8.79186 27.5013 14.0661 27.5064V17.6588C13.0913 19.6058 11.0779 20.9426 8.75225 20.9426C8.23435 20.9426 7.81451 20.5227 7.81451 20.0048C7.81451 19.4869 8.23435 19.0671 8.75225 19.0671C10.6737 19.0671 12.2837 17.7334 12.707 15.9413H2.50098Z" fill="#791A79"/>
<path d="M15.9416 27.5064C21.2158 27.5013 23.9447 27.4069 25.6759 25.6757C27.4072 23.9444 27.5015 21.2155 27.5067 15.9413H17.3006C17.7239 17.7334 19.3339 19.0671 21.2554 19.0671C21.7733 19.0671 22.1931 19.4869 22.1931 20.0048C22.1931 20.5227 21.7733 20.9426 21.2554 20.9426C18.9298 20.9426 16.9164 19.6058 15.9416 17.6588V27.5064Z" fill="#791A79"/>
<path d="M27.5067 14.0658C27.5015 8.79162 27.4072 6.06273 25.6759 4.33148C23.9447 2.60023 21.2158 2.50587 15.9416 2.50073V8.64417C16.4897 8.20535 17.1362 7.87746 17.8514 7.69867C20.5433 7.02569 22.9817 9.46406 22.3087 12.156C22.1299 12.8712 21.802 13.5177 21.3632 14.0658H27.5067Z" fill="#791A79"/>
<path d="M11.7014 9.51815C13.0911 9.86559 14.0661 11.1143 14.0661 12.5468V14.0658H12.5471C11.1145 14.0658 9.86583 13.0909 9.51839 11.7011C9.1888 10.3827 10.383 9.18855 11.7014 9.51815Z" fill="#791A79"/>
<path d="M15.9416 12.5468V14.0658H17.4606C18.8931 14.0658 20.1418 13.0909 20.4892 11.7011C20.8188 10.3827 19.6246 9.18855 18.3063 9.51815C16.9165 9.86559 15.9416 11.1143 15.9416 12.5468Z" fill="#791A79"/>
</svg>
