<svg width="168" height="63" viewBox="0 0 168 63" fill="none" xmlns="http://www.w3.org/2000/svg">
<g filter="url(#filter0_f_2253_529)">
<g clip-path="url(#clip0_2253_529)">
<path d="M41.4642 22.2596L26.513 29.7643L26.5999 37.1819L17.5596 32.7487V25.389L32.337 17.8264L41.2904 22.2017" fill="#C530C5"/>
<path d="M19.1533 40.9776L34.0756 33.4441L34.0177 26.0264L43.029 30.4596V37.8193L28.2516 45.3819L19.2982 41.0356" fill="#C530C5"/>
</g>
<path d="M54.9602 33.8436H58.7726C58.8479 34.4837 59.1397 35.0674 59.648 35.5945C60.1752 36.1028 60.8624 36.5076 61.7096 36.8089C62.5568 37.0913 63.5075 37.2325 64.5618 37.2325C65.522 37.2325 66.3127 37.1289 66.934 36.9218C67.5553 36.7147 68.0166 36.4229 68.3178 36.0464C68.619 35.6698 68.7696 35.218 68.7696 34.6908C68.7696 34.1825 68.5814 33.7966 68.2048 33.533C67.8283 33.2506 67.2353 33.0247 66.4257 32.8552C65.6161 32.667 64.5524 32.4787 63.2346 32.2904C62.1991 32.1398 61.2201 31.9327 60.2976 31.6691C59.3751 31.3867 58.5561 31.029 57.8407 30.596C57.1441 30.163 56.5887 29.6358 56.1745 29.0146C55.7791 28.3744 55.5815 27.6214 55.5815 26.7553C55.5815 25.6822 55.8827 24.7409 56.4851 23.9313C57.1064 23.1218 58.0195 22.4911 59.2244 22.0392C60.4294 21.5874 61.9073 21.3615 63.6582 21.3615C66.2939 21.3615 68.3178 21.9263 69.7298 23.0559C71.1606 24.1666 71.8572 25.701 71.8196 27.659H68.1484C68.073 26.5482 67.6024 25.7481 66.7363 25.2586C65.8891 24.7691 64.816 24.5244 63.517 24.5244C62.312 24.5244 61.3142 24.7032 60.5235 25.0609C59.7516 25.4186 59.3656 26.0305 59.3656 26.8965C59.3656 27.2354 59.4598 27.5366 59.648 27.8002C59.8363 28.045 60.1564 28.2615 60.6082 28.4497C61.0601 28.638 61.6719 28.8169 62.4438 28.9863C63.2157 29.1558 64.1759 29.3252 65.3243 29.4946C66.3975 29.6453 67.367 29.8523 68.2331 30.1159C69.1179 30.3607 69.871 30.6901 70.4923 31.1043C71.1324 31.4997 71.6219 32.008 71.9608 32.6293C72.2997 33.2506 72.4691 34.0131 72.4691 34.9168C72.4691 36.0275 72.1773 36.9971 71.5937 37.8255C71.0289 38.6351 70.144 39.2658 68.9391 39.7176C67.753 40.1694 66.2092 40.3954 64.3077 40.3954C62.9522 40.3954 61.7566 40.2542 60.7212 39.9718C59.6857 39.6705 58.7914 39.2752 58.0384 38.7857C57.2853 38.2962 56.6734 37.7596 56.2027 37.176C55.7321 36.5923 55.3932 36.0087 55.1861 35.4251C54.9978 34.8415 54.9225 34.3143 54.9602 33.8436ZM78.8104 36.0181V32.8835H90.8972V36.0181H78.8104ZM74.2637 40L82.8487 21.7286H86.9153L95.5851 40H91.4902L83.9783 23.5359H85.7857L78.3303 40H74.2637ZM94.7387 21.7286H113.999V24.8632H94.7387V21.7286ZM102.505 24.4679H106.261V40H102.505V24.4679ZM120.457 29.2687H134.944V32.4034H120.457V29.2687ZM134.322 21.7286H138.078V40H134.322V21.7286ZM117.152 21.7286H120.908V40H117.152V21.7286ZM143.374 21.7286H147.13V40H143.374V21.7286Z" fill="#340634"/>
</g>
<defs>
<filter id="filter0_f_2253_529" x="0" y="0" width="168.001" height="62.3203" filterUnits="userSpaceOnUse" color-interpolation-filters="sRGB">
<feFlood flood-opacity="0" result="BackgroundImageFix"/>
<feBlend mode="normal" in="SourceGraphic" in2="BackgroundImageFix" result="shape"/>
<feGaussianBlur stdDeviation="7" result="effect1_foregroundBlur_2253_529"/>
</filter>
<clipPath id="clip0_2253_529">
<rect width="25.4693" height="27.5556" fill="white" transform="translate(17.5557 17.8269)"/>
</clipPath>
</defs>
</svg>
